<svg width="436pt" height="436" viewBox="0 0 4360 3270"><rect width="4320" height="3240" x="40" y="30" fill="silver"/><rect width="4314" height="3234" x="3" y="3" fill="#fff" stroke="#000" stroke-width="6"/><g fill="#FFF" stroke="#000" stroke-width="15"><rect width="4240" height="3160" x="40" y="40"/></g><g fill="navy" font-family="Times New Roman" font-size="180" font-style="italic" text-anchor="end"><text id="Heading" x="4100" y="256">Distribution Java Source Statements</text><text x="4100" y="456">per Package (NCSS)</text></g><g fill="teal" font-family="Times New Roman" font-size="100" text-anchor="end"><text transform="translate(190 640) rotate(-90)">Java NCSS</text></g><g fill="green" font-family="Arial" font-size="100"><text id="Notes" x="2535" y="1080">Average Java NCSS = 740.40</text><text x="2535" y="1200">Total Packages = 20</text><text x="2535" y="1320">Total Java NCSS = 14808</text></g><text x="4100" y="3110" fill="teal" font-family="Times New Roman" font-size="100" text-anchor="end">Packages</text><g font-family="Times New Roman" font-size="80" text-anchor="middle"><text x="464" y="2970">0%</text><text x="814" y="2970">10%</text><text x="1164" y="2970">20%</text><text x="1514" y="2970">30%</text><text x="1864" y="2970">40%</text><text x="2214" y="2970">50%</text><text x="2564" y="2970">60%</text><text x="2914" y="2970">70%</text><text x="3264" y="2970">80%</text><text x="3614" y="2970">90%</text><text x="3964" y="2970">100%</text></g><path stroke="#000" stroke-width="6" d="M 464,2842 L 464,2881 z M 814,2842 L 814,2881 z M 1164,2842 L 1164,2881 z M 1514,2842 L 1514,2881 z M 1864,2842 L 1864,2881 z M 2214,2842 L 2214,2881 z M 2564,2842 L 2564,2881 z M 2914,2842 L 2914,2881 z M 3264,2842 L 3264,2881 z M 3614,2842 L 3614,2881 z M 3964,2842 L 3964,2881 z M 3964,2842 L 464,2842 z"/><path stroke="#000" stroke-width="6" d="M 464,2842 L 464,300 z"/><path stroke="#000" stroke-width="6" d="M 434,2842 L 463,2842 z"/><g font-family="Times New Roman" font-size="80" text-anchor="end"><text x="424" y="2842">0</text></g><g fill="#DBDBED" stroke="#000" stroke-width="4"><rect width="1575" height="176" x="464" y="2642"/></g><path stroke="#000" stroke-width="6" d="M 434,2622 L 463,2622 z"/><g font-family="Times New Roman" font-size="80" text-anchor="end"><text x="424" y="2622">297</text></g><g fill="#DBDBED" stroke="#000" stroke-width="4"><rect width="175" height="176" x="464" y="2422"/></g><path stroke="#000" stroke-width="6" d="M 434,2402 L 463,2402 z"/><g font-family="Times New Roman" font-size="80" text-anchor="end"><text x="424" y="2402">594</text></g><g fill="#DBDBED" stroke="#000" stroke-width="4"><rect width="525" height="176" x="464" y="2202"/></g><path stroke="#000" stroke-width="6" d="M 434,2182 L 463,2182 z"/><g font-family="Times New Roman" font-size="80" text-anchor="end"><text x="424" y="2182">891</text></g><g fill="#DBDBED" stroke="#000" stroke-width="4"><rect width="175" height="176" x="464" y="1982"/></g><path stroke="#000" stroke-width="6" d="M 434,1962 L 463,1962 z"/><g font-family="Times New Roman" font-size="80" text-anchor="end"><text x="424" y="1962">1188</text></g><g fill="#DBDBED" stroke="#000" stroke-width="4"><rect width="525" height="176" x="464" y="1762"/></g><path stroke="#000" stroke-width="6" d="M 434,1742 L 463,1742 z"/><g font-family="Times New Roman" font-size="80" text-anchor="end"><text x="424" y="1742">1485</text></g><g fill="#DBDBED" stroke="#000" stroke-width="4"><rect width="0" height="176" x="464" y="1542"/></g><path stroke="#000" stroke-width="6" d="M 434,1522 L 463,1522 z"/><g font-family="Times New Roman" font-size="80" text-anchor="end"><text x="424" y="1522">1782</text></g><g fill="#DBDBED" stroke="#000" stroke-width="4"><rect width="350" height="176" x="464" y="1322"/></g><path stroke="#000" stroke-width="6" d="M 434,1302 L 463,1302 z"/><g font-family="Times New Roman" font-size="80" text-anchor="end"><text x="424" y="1302">2079</text></g><g fill="#DBDBED" stroke="#000" stroke-width="4"><rect width="175" height="176" x="464" y="1102"/></g><path stroke="#000" stroke-width="6" d="M 434,1082 L 463,1082 z"/><g font-family="Times New Roman" font-size="80" text-anchor="end"><text x="424" y="1082">2376</text></g><g fill="#DBDBED" stroke="#000" stroke-width="4"><rect width="0" height="176" x="464" y="882"/></g><path stroke="#000" stroke-width="6" d="M 434,862 L 463,862 z"/><g font-family="Times New Roman" font-size="80" text-anchor="end"><text x="424" y="862">2673</text></g><g fill="#DBDBED" stroke="#000" stroke-width="4"><rect width="0" height="176" x="464" y="662"/></g><path stroke="#000" stroke-width="6" d="M 434,642 L 463,642 z"/><g font-family="Times New Roman" font-size="80" text-anchor="end"><text x="424" y="642">2970</text></g><g fill="#DBDBED" stroke="#000" stroke-width="4"><rect width="0" height="176" x="464" y="442"/></g></svg>